<?xml version="1.0" encoding="UTF-8" standalone="no"?>
<!DOCTYPE svg PUBLIC "-//W3C//DTD SVG 1.1//EN" "http://www.w3.org/Graphics/SVG/1.1/DTD/svg11.dtd">
<svg width="100%" height="100%" viewBox="0 0 2245 1182" version="1.1" xmlns="http://www.w3.org/2000/svg" xmlns:xlink="http://www.w3.org/1999/xlink" xml:space="preserve" xmlns:serif="http://www.serif.com/" style="fill-rule:evenodd;clip-rule:evenodd;stroke-linejoin:round;stroke-miterlimit:2;">
    <g transform="matrix(1,0,0,1,0,-408.693)">
        <g transform="matrix(4.16667,0,0,4.16667,0,0)">
            <rect x="0" y="97.921" width="538.894" height="283.63" style="fill:rgb(255,242,0);fill-rule:nonzero;"/>
        </g>
        <g transform="matrix(4.16667,0,0,4.16667,0,0)">
            <rect x="0" y="97.921" width="269.447" height="141.815" style="fill:rgb(38,73,100);fill-rule:nonzero;"/>
        </g>
        <g transform="matrix(4.16667,0,0,4.16667,0,0)">
            <path d="M162.637,215.982L132.097,193.794L101.557,215.982L113.221,180.079L82.682,157.891L120.431,157.891L132.097,121.989L143.761,157.891L181.511,157.891L150.971,180.08L162.637,215.982Z" style="fill:rgb(255,242,0);fill-rule:nonzero;"/>
        </g>
        <g transform="matrix(4.16667,0,0,4.16667,0,0)">
            <rect x="0" y="239.719" width="538.894" height="21.817" style="fill:rgb(192,49,64);fill-rule:nonzero;"/>
        </g>
        <g transform="matrix(4.16667,0,0,4.16667,0,0)">
            <path d="M153.755,259.395L148.057,255.256L142.359,259.395L144.535,252.697L138.838,248.558L145.88,248.558L148.057,241.86L150.233,248.558L157.276,248.558L151.578,252.698L153.755,259.395Z" style="fill:white;fill-rule:nonzero;"/>
        </g>
        <g transform="matrix(4.16667,0,0,4.16667,0,0)">
            <path d="M153.755,259.395L148.057,255.256L142.359,259.395L144.535,252.697L138.838,248.558L145.88,248.558L148.057,241.86L150.233,248.558L157.276,248.558L151.578,252.698L153.755,259.395Z" style="fill:none;"/>
        </g>
        <g transform="matrix(4.16667,0,0,4.16667,0,0)">
            <path d="M194.196,259.395L188.497,255.256L182.8,259.395L184.976,252.697L179.278,248.558L186.321,248.558L188.497,241.86L190.674,248.558L197.717,248.558L192.019,252.698L194.196,259.395Z" style="fill:white;fill-rule:nonzero;"/>
        </g>
        <g transform="matrix(4.16667,0,0,4.16667,0,0)">
            <path d="M194.196,259.395L188.497,255.256L182.8,259.395L184.976,252.697L179.278,248.558L186.321,248.558L188.497,241.86L190.674,248.558L197.717,248.558L192.019,252.698L194.196,259.395Z" style="fill:none;"/>
        </g>
        <g transform="matrix(4.16667,0,0,4.16667,0,0)">
            <path d="M234.636,259.395L228.938,255.256L223.24,259.395L225.417,252.697L219.719,248.558L226.762,248.558L228.938,241.86L231.114,248.558L238.157,248.558L232.46,252.698L234.636,259.395Z" style="fill:white;fill-rule:nonzero;"/>
        </g>
        <g transform="matrix(4.16667,0,0,4.16667,0,0)">
            <path d="M234.636,259.395L228.938,255.256L223.24,259.395L225.417,252.697L219.719,248.558L226.762,248.558L228.938,241.86L231.114,248.558L238.157,248.558L232.46,252.698L234.636,259.395Z" style="fill:none;"/>
        </g>
        <g transform="matrix(4.16667,0,0,4.16667,0,0)">
            <path d="M113.314,259.395L107.616,255.256L101.918,259.395L104.094,252.697L98.397,248.558L105.44,248.558L107.616,241.86L109.792,248.558L116.835,248.558L111.137,252.698L113.314,259.395Z" style="fill:white;fill-rule:nonzero;"/>
        </g>
        <g transform="matrix(4.16667,0,0,4.16667,0,0)">
            <path d="M113.314,259.395L107.616,255.256L101.918,259.395L104.094,252.697L98.397,248.558L105.44,248.558L107.616,241.86L109.792,248.558L116.835,248.558L111.137,252.698L113.314,259.395Z" style="fill:none;"/>
        </g>
        <g transform="matrix(4.16667,0,0,4.16667,0,0)">
            <path d="M72.873,259.395L67.176,255.256L61.478,259.395L63.654,252.697L57.956,248.558L64.999,248.558L67.176,241.86L69.352,248.558L76.395,248.558L70.697,252.698L72.873,259.395Z" style="fill:white;fill-rule:nonzero;"/>
        </g>
        <g transform="matrix(4.16667,0,0,4.16667,0,0)">
            <path d="M72.873,259.395L67.176,255.256L61.478,259.395L63.654,252.697L57.956,248.558L64.999,248.558L67.176,241.86L69.352,248.558L76.395,248.558L70.697,252.698L72.873,259.395Z" style="fill:none;"/>
        </g>
        <g transform="matrix(4.16667,0,0,4.16667,0,0)">
            <path d="M32.432,259.395L26.735,255.256L21.037,259.395L23.213,252.697L17.515,248.558L24.558,248.558L26.735,241.86L28.911,248.558L35.954,248.558L30.256,252.698L32.432,259.395Z" style="fill:white;fill-rule:nonzero;"/>
        </g>
        <g transform="matrix(4.16667,0,0,4.16667,0,0)">
            <path d="M32.432,259.395L26.735,255.256L21.037,259.395L23.213,252.697L17.515,248.558L24.558,248.558L26.735,241.86L28.911,248.558L35.954,248.558L30.256,252.698L32.432,259.395Z" style="fill:none;"/>
        </g>
        <g transform="matrix(4.16667,0,0,4.16667,0,0)">
            <path d="M436.84,259.395L431.142,255.256L425.444,259.395L427.62,252.697L421.923,248.558L428.966,248.558L431.142,241.86L433.318,248.558L440.361,248.558L434.663,252.698L436.84,259.395Z" style="fill:white;fill-rule:nonzero;"/>
        </g>
        <g transform="matrix(4.16667,0,0,4.16667,0,0)">
            <path d="M436.84,259.395L431.142,255.256L425.444,259.395L427.62,252.697L421.923,248.558L428.966,248.558L431.142,241.86L433.318,248.558L440.361,248.558L434.663,252.698L436.84,259.395Z" style="fill:none;"/>
        </g>
        <g transform="matrix(4.16667,0,0,4.16667,0,0)">
            <path d="M477.28,259.395L471.582,255.256L465.885,259.395L468.061,252.697L462.363,248.558L469.406,248.558L471.582,241.86L473.759,248.558L480.802,248.558L475.104,252.698L477.28,259.395Z" style="fill:white;fill-rule:nonzero;"/>
        </g>
        <g transform="matrix(4.16667,0,0,4.16667,0,0)">
            <path d="M477.28,259.395L471.582,255.256L465.885,259.395L468.061,252.697L462.363,248.558L469.406,248.558L471.582,241.86L473.759,248.558L480.802,248.558L475.104,252.698L477.28,259.395Z" style="fill:none;"/>
        </g>
        <g transform="matrix(4.16667,0,0,4.16667,0,0)">
            <path d="M517.721,259.395L512.023,255.256L506.325,259.395L508.502,252.697L502.804,248.558L509.847,248.558L512.023,241.86L514.199,248.558L521.242,248.558L515.545,252.698L517.721,259.395Z" style="fill:white;fill-rule:nonzero;"/>
        </g>
        <g transform="matrix(4.16667,0,0,4.16667,0,0)">
            <path d="M517.721,259.395L512.023,255.256L506.325,259.395L508.502,252.697L502.804,248.558L509.847,248.558L512.023,241.86L514.199,248.558L521.242,248.558L515.545,252.698L517.721,259.395Z" style="fill:none;"/>
        </g>
        <g transform="matrix(4.16667,0,0,4.16667,0,0)">
            <path d="M396.399,259.395L390.701,255.256L385.003,259.395L387.179,252.697L381.482,248.558L388.525,248.558L390.701,241.86L392.877,248.558L399.92,248.558L394.222,252.698L396.399,259.395Z" style="fill:white;fill-rule:nonzero;"/>
        </g>
        <g transform="matrix(4.16667,0,0,4.16667,0,0)">
            <path d="M396.399,259.395L390.701,255.256L385.003,259.395L387.179,252.697L381.482,248.558L388.525,248.558L390.701,241.86L392.877,248.558L399.92,248.558L394.222,252.698L396.399,259.395Z" style="fill:none;"/>
        </g>
        <g transform="matrix(4.16667,0,0,4.16667,0,0)">
            <path d="M355.958,259.395L350.26,255.256L344.563,259.395L346.739,252.697L341.041,248.558L348.084,248.558L350.26,241.86L352.437,248.558L359.48,248.558L353.782,252.698L355.958,259.395Z" style="fill:white;fill-rule:nonzero;"/>
        </g>
        <g transform="matrix(4.16667,0,0,4.16667,0,0)">
            <path d="M355.958,259.395L350.26,255.256L344.563,259.395L346.739,252.697L341.041,248.558L348.084,248.558L350.26,241.86L352.437,248.558L359.48,248.558L353.782,252.698L355.958,259.395Z" style="fill:none;"/>
        </g>
        <g transform="matrix(4.16667,0,0,4.16667,0,0)">
            <path d="M275.077,259.395L269.379,255.256L263.681,259.395L265.857,252.697L260.159,248.558L267.202,248.558L269.379,241.86L271.555,248.558L278.598,248.558L272.9,252.698L275.077,259.395Z" style="fill:white;fill-rule:nonzero;"/>
        </g>
        <g transform="matrix(4.16667,0,0,4.16667,0,0)">
            <path d="M275.077,259.395L269.379,255.256L263.681,259.395L265.857,252.697L260.159,248.558L267.202,248.558L269.379,241.86L271.555,248.558L278.598,248.558L272.9,252.698L275.077,259.395Z" style="fill:none;"/>
        </g>
        <g transform="matrix(4.16667,0,0,4.16667,0,0)">
            <path d="M315.517,259.395L309.82,255.256L304.122,259.395L306.298,252.697L300.6,248.558L307.643,248.558L309.82,241.86L311.996,248.558L319.039,248.558L313.341,252.698L315.517,259.395Z" style="fill:white;fill-rule:nonzero;"/>
        </g>
        <g transform="matrix(4.16667,0,0,4.16667,0,0)">
            <path d="M315.517,259.395L309.82,255.256L304.122,259.395L306.298,252.697L300.6,248.558L307.643,248.558L309.82,241.86L311.996,248.558L319.039,248.558L313.341,252.698L315.517,259.395Z" style="fill:none;"/>
        </g>
    </g>
</svg>
